<mxfile host="65bd71144e">
    <diagram id="AtGz82c1c8fhpXSBYIMt" name="PÃ¡gina-1">
        <mxGraphModel dx="662" dy="411" grid="1" gridSize="10" guides="1" tooltips="1" connect="1" arrows="1" fold="1" page="1" pageScale="1" pageWidth="827" pageHeight="1169" math="0" shadow="0">
            <root>
                <mxCell id="0"/>
                <mxCell id="1" parent="0"/>
                <mxCell id="3" value="" style="edgeStyle=none;html=1;" parent="1" source="4" target="6" edge="1">
                    <mxGeometry relative="1" as="geometry"/>
                </mxCell>
                <mxCell id="4" value="inicio" style="rounded=1;whiteSpace=wrap;html=1;fillColor=#60a917;fontColor=#ffffff;strokeColor=#2D7600;" parent="1" vertex="1">
                    <mxGeometry x="270" y="40" width="120" height="60" as="geometry"/>
                </mxCell>
                <mxCell id="5" value="" style="edgeStyle=none;html=1;" parent="1" source="6" edge="1">
                    <mxGeometry relative="1" as="geometry">
                        <mxPoint x="330" y="250" as="targetPoint"/>
                    </mxGeometry>
                </mxCell>
                <mxCell id="6" value="A=1234" style="shape=parallelogram;perimeter=parallelogramPerimeter;whiteSpace=wrap;html=1;fixedSize=1;fillColor=#a20025;fontColor=#ffffff;strokeColor=#6F0000;" parent="1" vertex="1">
                    <mxGeometry x="270" y="150" width="120" height="60" as="geometry"/>
                </mxCell>
                <mxCell id="7" value="" style="edgeStyle=none;html=1;" parent="1" target="10" edge="1">
                    <mxGeometry relative="1" as="geometry">
                        <mxPoint x="330" y="330" as="sourcePoint"/>
                    </mxGeometry>
                </mxCell>
                <mxCell id="9" value="" style="edgeStyle=none;html=1;" parent="1" source="10" target="11" edge="1">
                    <mxGeometry relative="1" as="geometry"/>
                </mxCell>
                <mxCell id="15" value="" style="edgeStyle=none;html=1;" edge="1" parent="1" source="10" target="11">
                    <mxGeometry relative="1" as="geometry"/>
                </mxCell>
                <mxCell id="10" value="NJ" style="shape=document;whiteSpace=wrap;html=1;boundedLbl=1;fillColor=#a20025;fontColor=#ffffff;strokeColor=#6F0000;" parent="1" vertex="1">
                    <mxGeometry x="270" y="470" width="120" height="80" as="geometry"/>
                </mxCell>
                <mxCell id="11" value="FIN" style="rounded=1;whiteSpace=wrap;html=1;fillColor=#60a917;fontColor=#ffffff;strokeColor=#2D7600;" parent="1" vertex="1">
                    <mxGeometry x="270" y="590" width="120" height="60" as="geometry"/>
                </mxCell>
                <mxCell id="14" value="&lt;div style=&quot;color: rgb(212, 212, 212); background-color: rgb(30, 30, 30); font-family: &amp;quot;Droid Sans Mono&amp;quot;, &amp;quot;monospace&amp;quot;, monospace; font-size: 14px; line-height: 19px;&quot;&gt;&lt;div&gt;c4 = (A % &lt;span style=&quot;color: #b5cea8;&quot;&gt;10&lt;/span&gt;) * &lt;span style=&quot;color: #b5cea8;&quot;&gt;1000&lt;/span&gt;&lt;/div&gt;&lt;div&gt;pe = A//&lt;span style=&quot;color: #b5cea8;&quot;&gt;10&lt;/span&gt;&lt;/div&gt;&lt;div&gt;c3 = int((A % &lt;span style=&quot;color: #b5cea8;&quot;&gt;100&lt;/span&gt;) / &lt;span style=&quot;color: #b5cea8;&quot;&gt;10&lt;/span&gt;) * &lt;span style=&quot;color: #b5cea8;&quot;&gt;100&lt;/span&gt;&lt;/div&gt;&lt;div&gt;pe = pe//&lt;span style=&quot;color: #b5cea8;&quot;&gt;10&lt;/span&gt;&lt;/div&gt;&lt;div&gt;c2 = int((A % &lt;span style=&quot;color: #b5cea8;&quot;&gt;1000&lt;/span&gt;) / &lt;span style=&quot;color: #b5cea8;&quot;&gt;100&lt;/span&gt;) * &lt;span style=&quot;color: #b5cea8;&quot;&gt;10&lt;/span&gt;&lt;/div&gt;&lt;div&gt;c1 = pe // &lt;span style=&quot;color: #b5cea8;&quot;&gt;10&lt;/span&gt; &lt;/div&gt;&lt;br&gt;&lt;div&gt;nj  = c4 + c3 + c2 + c1&lt;/div&gt;&lt;/div&gt;" style="rounded=0;whiteSpace=wrap;html=1;fillColor=#1ba1e2;fontColor=#ffffff;strokeColor=#006EAF;" vertex="1" parent="1">
                    <mxGeometry x="210" y="230" width="240" height="210" as="geometry"/>
                </mxCell>
            </root>
        </mxGraphModel>
    </diagram>
</mxfile>